999
"DXF R12 Output" (www.mydxf.blogspot.com)
 0 
SECTION
 2 
HEADER
 9 
$ACADVER
 1 
AC1009
 9 
$EXTMIN
 10 
 0 
 20 
 0 
 9 
$EXTMAX
 10 
 8.5 
 20 
 11 
 0 
ENDSEC
 0 
SECTION
 2 
ENTITIES
0
POLYLINE
8
Layer 1
62
7
70
0
10
0.000000
20
0.000000
66
1
0
VERTEX
8
Layer 1
10
46.462787
20
284.098999
70
0
0
VERTEX
8
Layer 1
10
96.196994
20
284.098999
70
0
0
VERTEX
8
Layer 1
10
96.196994
20
259.364790
70
0
0
VERTEX
8
Layer 1
10
46.462787
20
259.364790
70
0
0
VERTEX
8
Layer 1
10
46.462787
20
284.098999
70
0
0
SEQEND
8
Layer 1
0
POLYLINE
8
Layer 1
62
7
70
0
10
0.000000
20
0.000000
66
1
0
VERTEX
8
Layer 1
10
66.379432
20
266.265248
70
0
0
VERTEX
8
Layer 1
10
76.280349
20
266.265248
70
0
0
VERTEX
8
Layer 1
10
76.280349
20
259.364331
70
0
0
VERTEX
8
Layer 1
10
66.379432
20
259.364331
70
0
0
VERTEX
8
Layer 1
10
66.379432
20
266.265248
70
0
0
SEQEND
8
Layer 1
0
POLYLINE
8
Layer 1
62
7
70
0
10
0.000000
20
0.000000
66
1
0
VERTEX
8
Layer 1
10
60.079914
20
279.930704
70
0
0
VERTEX
8
Layer 1
10
58.854369
20
279.838884
70
0
0
VERTEX
8
Layer 1
10
57.675773
20
279.570703
70
0
0
VERTEX
8
Layer 1
10
56.560463
20
279.137075
70
0
0
VERTEX
8
Layer 1
10
55.524776
20
278.548918
70
0
0
VERTEX
8
Layer 1
10
54.585049
20
277.817146
70
0
0
VERTEX
8
Layer 1
10
53.757619
20
276.952676
70
0
0
VERTEX
8
Layer 1
10
53.058823
20
275.966424
70
0
0
VERTEX
8
Layer 1
10
52.504996
20
274.869306
70
0
0
VERTEX
8
Layer 1
10
52.120831
20
273.701911
70
0
0
VERTEX
8
Layer 1
10
51.917569
20
272.510402
70
0
0
VERTEX
8
Layer 1
10
51.891378
20
271.314048
70
0
0
VERTEX
8
Layer 1
10
52.038424
20
270.132120
70
0
0
VERTEX
8
Layer 1
10
52.354875
20
268.983889
70
0
0
VERTEX
8
Layer 1
10
52.836897
20
267.888625
70
0
0
VERTEX
8
Layer 1
10
53.480658
20
266.865599
70
0
0
VERTEX
8
Layer 1
10
54.282323
20
265.934081
70
0
0
VERTEX
8
Layer 1
10
55.213841
20
265.132416
70
0
0
VERTEX
8
Layer 1
10
56.236867
20
264.488655
70
0
0
VERTEX
8
Layer 1
10
57.332131
20
264.006633
70
0
0
VERTEX
8
Layer 1
10
58.480362
20
263.690182
70
0
0
VERTEX
8
Layer 1
10
59.662290
20
263.543136
70
0
0
VERTEX
8
Layer 1
10
60.858644
20
263.569327
70
0
0
VERTEX
8
Layer 1
10
62.050153
20
263.772589
70
0
0
VERTEX
8
Layer 1
10
63.217548
20
264.156754
70
0
0
VERTEX
8
Layer 1
10
64.314666
20
264.710581
70
0
0
VERTEX
8
Layer 1
10
65.300918
20
265.409377
70
0
0
VERTEX
8
Layer 1
10
66.165388
20
266.236807
70
0
0
VERTEX
8
Layer 1
10
66.897160
20
267.176534
70
0
0
VERTEX
8
Layer 1
10
67.485317
20
268.212221
70
0
0
VERTEX
8
Layer 1
10
67.918945
20
269.327531
70
0
0
VERTEX
8
Layer 1
10
68.187126
20
270.506127
70
0
0
VERTEX
8
Layer 1
10
68.278946
20
271.731672
70
0
0
VERTEX
8
Layer 1
10
68.119948
20
273.338693
70
0
0
VERTEX
8
Layer 1
10
67.654832
20
274.869306
70
0
0
VERTEX
8
Layer 1
10
66.901412
20
276.280499
70
0
0
VERTEX
8
Layer 1
10
65.877505
20
277.529263
70
0
0
VERTEX
8
Layer 1
10
64.628741
20
278.553170
70
0
0
VERTEX
8
Layer 1
10
63.217548
20
279.306590
70
0
0
VERTEX
8
Layer 1
10
61.686935
20
279.771706
70
0
0
VERTEX
8
Layer 1
10
60.079914
20
279.930704
70
0
0
VERTEX
8
Layer 1
10
60.079914
20
279.930704
70
0
0
SEQEND
8
Layer 1
0
POLYLINE
8
Layer 1
62
7
70
0
10
0.000000
20
0.000000
66
1
0
VERTEX
8
Layer 1
10
82.579910
20
279.930704
70
0
0
VERTEX
8
Layer 1
10
81.354365
20
279.838884
70
0
0
VERTEX
8
Layer 1
10
80.175769
20
279.570703
70
0
0
VERTEX
8
Layer 1
10
79.060459
20
279.137075
70
0
0
VERTEX
8
Layer 1
10
78.024772
20
278.548918
70
0
0
VERTEX
8
Layer 1
10
77.085045
20
277.817146
70
0
0
VERTEX
8
Layer 1
10
76.257615
20
276.952676
70
0
0
VERTEX
8
Layer 1
10
75.558819
20
275.966424
70
0
0
VERTEX
8
Layer 1
10
75.004992
20
274.869306
70
0
0
VERTEX
8
Layer 1
10
74.620827
20
273.701911
70
0
0
VERTEX
8
Layer 1
10
74.417565
20
272.510402
70
0
0
VERTEX
8
Layer 1
10
74.391374
20
271.314048
70
0
0
VERTEX
8
Layer 1
10
74.538420
20
270.132120
70
0
0
VERTEX
8
Layer 1
10
74.854871
20
268.983889
70
0
0
VERTEX
8
Layer 1
10
75.336893
20
267.888625
70
0
0
VERTEX
8
Layer 1
10
75.980654
20
266.865599
70
0
0
VERTEX
8
Layer 1
10
76.782319
20
265.934081
70
0
0
VERTEX
8
Layer 1
10
77.713837
20
265.132416
70
0
0
VERTEX
8
Layer 1
10
78.736863
20
264.488655
70
0
0
VERTEX
8
Layer 1
10
79.832127
20
264.006633
70
0
0
VERTEX
8
Layer 1
10
80.980358
20
263.690182
70
0
0
VERTEX
8
Layer 1
10
82.162286
20
263.543136
70
0
0
VERTEX
8
Layer 1
10
83.358640
20
263.569327
70
0
0
VERTEX
8
Layer 1
10
84.550149
20
263.772589
70
0
0
VERTEX
8
Layer 1
10
85.717544
20
264.156754
70
0
0
VERTEX
8
Layer 1
10
86.814662
20
264.710581
70
0
0
VERTEX
8
Layer 1
10
87.800914
20
265.409377
70
0
0
VERTEX
8
Layer 1
10
88.665384
20
266.236807
70
0
0
VERTEX
8
Layer 1
10
89.397156
20
267.176534
70
0
0
VERTEX
8
Layer 1
10
89.985313
20
268.212221
70
0
0
VERTEX
8
Layer 1
10
90.418941
20
269.327531
70
0
0
VERTEX
8
Layer 1
10
90.687122
20
270.506127
70
0
0
VERTEX
8
Layer 1
10
90.778942
20
271.731672
70
0
0
VERTEX
8
Layer 1
10
90.619944
20
273.338693
70
0
0
VERTEX
8
Layer 1
10
90.154828
20
274.869306
70
0
0
VERTEX
8
Layer 1
10
89.401408
20
276.280499
70
0
0
VERTEX
8
Layer 1
10
88.377501
20
277.529263
70
0
0
VERTEX
8
Layer 1
10
87.128737
20
278.553170
70
0
0
VERTEX
8
Layer 1
10
85.717544
20
279.306590
70
0
0
VERTEX
8
Layer 1
10
84.186931
20
279.771706
70
0
0
VERTEX
8
Layer 1
10
82.579910
20
279.930704
70
0
0
VERTEX
8
Layer 1
10
82.579910
20
279.930704
70
0
0
SEQEND
8
Layer 1
 0 
ENDSEC
 0 
EOF